<?xml version="1.0" standalone="no"?>
<!DOCTYPE svg PUBLIC "-//W3C//DTD SVG 20010904//EN"
 "http://www.w3.org/TR/2001/REC-SVG-20010904/DTD/svg10.dtd">
<svg version="1.0" xmlns="http://www.w3.org/2000/svg"
 width="500.000000pt" height="500.000000pt" viewBox="0 0 500.000000 500.000000"
 preserveAspectRatio="xMidYMid meet">
<metadata>
Created by potrace 1.15, written by Peter Selinger 2001-2017
</metadata>
<g transform="translate(0.000000,500.000000) scale(0.100000,-0.100000)"
fill="#FFFFFF" stroke="none">
<path d="M1713 3852 l-773 -446 0 -198 c0 -191 1 -198 20 -198 19 0 20 7 20
188 l1 187 759 437 759 437 762 -439 c419 -242 765 -437 770 -434 5 3 9 11 9
17 0 12 -1509 887 -1539 893 -9 1 -364 -198 -788 -444z"/>
<path d="M3704 3332 c-6 -4 -18 -21 -27 -38 -11 -22 -26 -33 -48 -38 -38 -7
-59 -23 -59 -43 0 -10 8 -12 35 -7 l34 6 -31 -93 c-34 -102 -86 -175 -109
-152 -10 10 -5 31 21 98 26 67 31 88 21 95 -21 12 -49 0 -81 -36 l-30 -34 6
30 c4 18 2 30 -4 30 -21 0 -41 -31 -63 -97 -25 -77 -82 -143 -124 -143 -42 0
-41 22 3 61 55 48 55 78 1 49 -28 -16 -24 5 7 37 20 20 28 23 34 12 7 -11 13
-10 29 5 44 40 15 68 -41 41 -53 -27 -88 -65 -88 -96 0 -15 4 -30 9 -33 15 -9
-76 -99 -93 -93 -14 6 -13 15 10 74 31 79 39 118 27 126 -17 11 -73 -23 -101
-62 l-30 -41 2 32 c2 48 -27 49 -76 1 -36 -35 -39 -36 -27 -10 15 32 8 43 -19
28 -19 -10 -82 -178 -82 -220 0 -43 30 -19 64 52 36 75 89 147 100 136 4 -4
-7 -44 -24 -90 -16 -45 -30 -86 -30 -91 0 -21 33 -5 48 23 56 104 152 234 128
173 -38 -91 -47 -129 -37 -151 14 -30 66 -31 97 -2 18 17 26 19 43 9 23 -12
95 2 106 21 4 5 15 7 26 4 14 -5 23 1 37 25 36 65 113 180 122 180 4 0 0 -23
-11 -50 -25 -66 -25 -116 0 -130 22 -12 60 -1 80 24 12 14 15 14 36 0 14 -9
33 -13 45 -9 28 9 80 66 80 88 0 24 -7 22 -45 -19 -19 -20 -39 -33 -45 -29
-17 10 -11 45 23 145 32 93 32 95 75 110 53 18 59 34 14 38 -29 3 -31 5 -21
24 12 22 1 42 -17 30z"/>
<path d="M2375 3134 c-34 -36 -81 -135 -100 -209 -17 -68 -20 -167 -5 -196 13
-24 66 -26 98 -4 17 13 26 13 43 5 49 -27 133 52 166 156 20 65 10 84 -47 84
-29 0 -45 -7 -70 -32 -33 -34 -69 -100 -70 -129 0 -23 -45 -61 -66 -57 -34 6
-26 39 46 181 80 158 95 219 53 225 -15 2 -32 -6 -48 -24z"/>
<path d="M2694 3058 c-35 -67 -175 -442 -172 -460 6 -40 25 -17 63 81 31 78
43 100 55 95 47 -20 98 20 141 111 32 67 37 106 14 125 -17 14 -47 -1 -90 -47
-31 -35 -31 -28 0 43 14 31 25 63 25 70 0 25 -19 15 -36 -18z"/>
<path d="M1435 2956 c-62 -19 -100 -42 -129 -76 -29 -35 -33 -58 -12 -66 21
-8 56 14 50 30 -7 17 40 51 97 71 102 36 189 0 189 -80 0 -62 -95 -182 -176
-223 -49 -24 -94 -35 -94 -23 0 7 75 190 127 309 9 22 -36 13 -51 -10 -34 -54
-127 -289 -124 -315 3 -27 6 -28 53 -28 68 1 152 43 219 109 113 114 129 249
35 297 -44 22 -123 24 -184 5z"/>
<path d="M2033 2912 c-7 -4 -11 -22 -11 -39 2 -49 -89 -209 -108 -190 -3 3 4
39 15 79 12 41 21 82 21 91 0 27 -26 20 -54 -14 -27 -32 -33 -55 -16 -61 11
-3 2 -68 -10 -68 -4 0 -26 -18 -49 -40 -25 -24 -52 -40 -66 -40 -42 0 -41 22
3 61 55 48 55 78 1 49 -28 -16 -24 5 7 37 20 20 28 23 34 12 7 -11 13 -10 29
5 44 40 15 68 -41 41 -53 -27 -88 -65 -88 -96 0 -15 5 -31 11 -34 6 -5 3 -13
-10 -22 -29 -19 -27 -59 3 -78 30 -20 81 -9 131 29 27 21 34 23 39 11 24 -64
168 101 192 221 6 32 -13 58 -33 46z"/>
<path d="M2165 2903 c-51 -26 -85 -64 -85 -94 0 -15 5 -31 11 -34 6 -5 3 -13
-10 -22 -29 -19 -27 -59 3 -78 20 -13 32 -14 61 -6 54 15 105 57 105 87 0 13
-2 24 -3 24 -2 0 -23 -18 -46 -40 -25 -24 -52 -40 -66 -40 -42 0 -41 22 3 61
55 48 55 78 1 49 -28 -16 -24 5 7 37 21 21 28 23 35 12 7 -11 12 -10 30 8 22
22 20 53 -3 53 -7 -1 -26 -8 -43 -17z"/>
<path d="M3465 2506 c-106 -50 -203 -187 -212 -300 -4 -51 -2 -65 16 -87 30
-39 63 -43 122 -18 68 30 129 99 129 148 l-1 36 -21 -30 c-35 -48 -99 -106
-132 -120 -47 -20 -66 -5 -66 53 0 83 64 194 148 258 84 64 105 30 31 -49 -45
-47 -48 -57 -15 -57 30 0 89 64 106 115 12 36 11 40 -10 57 -28 23 -35 23 -95
-6z"/>
<path d="M3620 2338 c-62 -63 -90 -167 -54 -202 19 -20 28 -20 63 -1 63 32
140 185 111 219 -7 9 -28 16 -50 16 -29 0 -45 -7 -70 -32z"/>
<path d="M2544 2302 c-6 -4 -18 -21 -27 -38 -11 -22 -26 -33 -48 -38 -38 -7
-59 -23 -59 -43 0 -11 8 -12 35 -7 l34 6 -29 -88 c-38 -110 -39 -160 -6 -175
18 -9 30 -7 55 5 17 9 41 14 54 11 34 -9 104 31 124 69 26 51 104 166 113 166
4 0 0 -23 -11 -50 -25 -66 -25 -116 0 -130 21 -11 64 0 76 19 4 8 12 8 26 1
24 -13 54 1 92 44 l27 31 -16 -45 c-10 -25 -29 -58 -42 -75 -52 -62 -61 -126
-18 -124 16 0 28 15 50 62 18 37 55 88 93 128 56 58 79 99 55 99 -4 0 -28 -20
-52 -45 -24 -24 -45 -43 -47 -41 -2 2 16 54 41 116 l45 112 -42 -7 c-86 -14
-152 -70 -194 -165 -25 -56 -59 -88 -75 -72 -8 8 -3 33 22 97 26 67 31 88 21
95 -21 12 -49 0 -81 -36 l-30 -34 6 30 c4 18 2 30 -4 30 -20 0 -40 -30 -58
-82 -23 -71 -48 -119 -73 -142 -38 -35 -41 -6 -9 87 24 68 28 91 19 100 -10 9
-19 4 -43 -22 -18 -21 -26 -37 -20 -43 12 -12 -30 -127 -53 -144 -22 -16 -35
-10 -35 18 0 34 60 202 77 215 9 7 35 15 60 19 41 6 63 25 63 53 0 16 -26 13
-40 -4 -7 -8 -26 -15 -42 -15 -26 0 -28 2 -17 21 12 23 1 43 -17 31z"/>
<path d="M1580 2165 c-59 -19 -149 -73 -173 -106 -37 -51 7 -95 48 -49 18 20
18 21 -1 14 -18 -7 -18 -7 1 15 19 22 112 81 128 81 4 0 -6 -26 -22 -57 -41
-82 -118 -263 -126 -295 -6 -25 -4 -28 17 -28 22 0 29 10 58 85 l33 84 65 -59
c36 -32 80 -67 98 -76 33 -18 34 -18 51 0 14 14 15 19 5 23 -15 6 -162 122
-162 129 0 2 18 13 40 24 23 12 58 37 80 56 120 109 30 211 -140 159z"/>
<path d="M2289 2112 c-84 -54 -103 -123 -38 -136 17 -3 42 -6 55 -6 40 0 37
-20 -8 -40 l-43 -20 -23 26 -22 25 -26 -30 c-14 -17 -30 -31 -35 -31 -14 0
-11 61 6 116 8 27 15 52 15 56 0 11 -91 -3 -121 -18 -32 -16 -77 -80 -90 -128
-7 -27 -7 -43 3 -64 20 -42 51 -40 96 7 l40 41 6 -25 c5 -19 13 -25 35 -25 15
0 36 9 46 20 15 17 19 17 32 5 18 -19 35 -19 81 0 49 21 82 53 82 81 0 29 -27
44 -79 44 -22 0 -42 4 -45 9 -7 11 59 71 79 71 7 0 15 -5 17 -10 5 -17 48 19
48 41 0 29 -57 25 -111 -9z"/>
<path d="M1830 2008 c-62 -63 -90 -167 -54 -202 19 -20 28 -20 63 -1 63 32
140 185 111 219 -7 9 -28 16 -50 16 -29 0 -45 -7 -70 -32z"/>
<path d="M4020 1828 l-1 -203 -760 -437 -760 -437 -761 439 c-418 242 -764
437 -769 434 -5 -3 -9 -11 -9 -17 1 -14 1517 -892 1540 -891 8 0 362 200 787
445 l772 444 1 213 c0 205 -1 212 -20 212 -19 0 -20 -7 -20 -202z"/>
</g>
</svg>
